<svg xmlns="http://www.w3.org/2000/svg" width="15.671" height="11.753" viewBox="0 0 15.671 11.753">
  <g id="eye" transform="translate(0 -3)">
    <path id="Trazado_445" data-name="Trazado 445" d="M7.836,3a6.912,6.912,0,0,1,3.366.9,9.906,9.906,0,0,1,2.416,1.921A12.973,12.973,0,0,1,15.6,8.585a.653.653,0,0,1,0,.584,12.973,12.973,0,0,1-1.985,2.766A9.906,9.906,0,0,1,11.2,13.856a6.912,6.912,0,0,1-3.366.9,6.912,6.912,0,0,1-3.366-.9,9.906,9.906,0,0,1-2.416-1.921A12.973,12.973,0,0,1,.069,9.169a.653.653,0,0,1,0-.584A12.973,12.973,0,0,1,2.054,5.818,9.906,9.906,0,0,1,4.47,3.9,6.912,6.912,0,0,1,7.836,3Zm6.437,5.877a12.25,12.25,0,0,0-1.631-2.19,8.57,8.57,0,0,0-2.087-1.655,5.617,5.617,0,0,0-2.719-.726c-3.523,0-5.828,3.52-6.437,4.571a12.25,12.25,0,0,0,1.631,2.19,8.57,8.57,0,0,0,2.087,1.655,5.617,5.617,0,0,0,2.719.726C11.358,13.447,13.664,9.927,14.273,8.877Z" transform="translate(0 0)" fill="#6429CD"/>
    <path id="Elipse_554" data-name="Elipse 554" d="M1.612-1A2.612,2.612,0,1,1-1,1.612,2.615,2.615,0,0,1,1.612-1Zm0,3.918A1.306,1.306,0,1,0,.306,1.612,1.307,1.307,0,0,0,1.612,2.918Z" transform="translate(6.224 7.265)" fill="#6429CD"/>
  </g>
</svg>
